<?xml version="1.0" encoding="UTF-8"?><svg id="Layer_2" xmlns="http://www.w3.org/2000/svg" xmlns:xlink="http://www.w3.org/1999/xlink" viewBox="0 0 78 78"><defs><clipPath id="clippath"><rect width="78" height="78" fill="none"/></clipPath></defs><g id="Layer_1-2"><g clip-path="url(#clippath)"><rect width="78" height="78" fill="#92e643"/><rect x="39.87" y="28.6" width="6.93" height="13.87"/><rect x="32.07" y="28.6" width="6.93" height="13.87"/><rect x="39.87" y="43.33" width="13.87" height="34.67"/><polygon points="18.2 43.33 25.13 43.33 39 43.33 39 57.2 39 78 25.13 78 25.13 46.8 18.2 46.8 18.2 78 14.73 78 14.73 57.2 14.73 43.33 18.2 43.33"/><g><path d="M104.3,19.65c1.8,2.89-2.99,5.82-10.6,6.35-6.92,.48-13.53-1.37-15.32-4.03-1.46-2.18-5.16-3.91-9.88-4.89-4.17-.88-9.17-1.18-14.12-.71-10.7,1.02-17.26,5.24-14.66,9.42-1.8-2.89,2.99-5.82,10.6-6.35,6.92-.48,13.53,1.37,15.32,4.03,1.46,2.18,5.16,3.91,9.88,4.89,4.17,.88,9.17,1.18,14.12,.71,10.7-1.02,17.26-5.24,14.66-9.42Z" fill="#fff"/><path d="M71.99,30.09c-2.49,1.26-7.2,1.44-10.3,.38-2.81-.97-3.04-2.66-.79-3.84,1.84-.96,2.45-2.14,1.93-3.24-.45-.97-1.79-1.89-3.94-2.54-4.64-1.41-11.32-1.08-14.92,.74,2.49-1.26,7.2-1.44,10.3-.38,2.81,.97,3.04,2.66,.79,3.84-1.84,.96-2.45,2.14-1.93,3.24,.45,.97,1.79,1.89,3.94,2.54,4.64,1.41,11.32,1.08,14.92-.74Z" fill="#fff"/></g></g></g></svg>